PathFileType	4	(X/Y/Z)	C:/Users/opensim2020/Desktop/walking_exp_matlab/subject06_walking16_straight_01.trc																																																																																																																																																							
DataRate	CameraRate	NumFrames	NumMarkers	Units	OrigDataRate	OrigDataStartFrame	OrigNumFrames																																																																																																																																																			
100	100	7	51	mm	100	1079	333																																																																																																																																																			
Frame#	Time	LFHD			RFHD			LBHD			RBHD			C7			T10			CLAV			STRN			RBAK			LSHO			LUPA			LELB			LFRM			LWRA			LWRB			LFIN			RSHO			RUPA			RELB			RFRM			RWRA			RWRB			RFIN			LASI			RASI			LPSI			RPSI			LTHI			LKNE			LTIB			LANK			LHEE			LTOE			RTHI			RKNE			RTIB			RANK			RHEE			RTOE			*39			*40			*41			*42			*43			*44			*45			*46			*47			*48			*49			*50		
		X1	Y1	Z1	X2	Y2	Z2	X3	Y3	Z3	X4	Y4	Z4	X5	Y5	Z5	X6	Y6	Z6	X7	Y7	Z7	X8	Y8	Z8	X9	Y9	Z9	X10	Y10	Z10	X11	Y11	Z11	X12	Y12	Z12	X13	Y13	Z13	X14	Y14	Z14	X15	Y15	Z15	X16	Y16	Z16	X17	Y17	Z17	X18	Y18	Z18	X19	Y19	Z19	X20	Y20	Z20	X21	Y21	Z21	X22	Y22	Z22	X23	Y23	Z23	X24	Y24	Z24	X25	Y25	Z25	X26	Y26	Z26	X27	Y27	Z27	X28	Y28	Z28	X29	Y29	Z29	X30	Y30	Z30	X31	Y31	Z31	X32	Y32	Z32	X33	Y33	Z33	X34	Y34	Z34	X35	Y35	Z35	X36	Y36	Z36	X37	Y37	Z37	X38	Y38	Z38	X39	Y39	Z39	X40	Y40	Z40	X41	Y41	Z41	X42	Y42	Z42	X43	Y43	Z43	X44	Y44	Z44	X45	Y45	Z45	X46	Y46	Z46	X47	Y47	Z47	X48	Y48	Z48	X49	Y49	Z49	X50	Y50	Z50	X51	Y51	Z51
																																																																																																																																																										
209	2.08	269.43985	1646.53381	-1070.20764	260.03903	1635.65771	-938.84192	136.76614	1594.47168	-1080.82043	129.00391	1587.7511	-951.88062	128.3793	1436.9458	-1019.75232	84.89641	1108.42334	-1007.70178	236.4525	1358.22424	-1014.64612	272.28439	1181.99341	-1012.28119	48.10286	1271.26636	-935.185	182.87334	1384.302	-1179.0105	141.30798	1185.22693	-1241.85193	110.16361	1076.49817	-1245.64465	101.97491	924.91083	-1259.53101	135.58568	802.84595	-1209.77405	76.28	808.5658	-1249.73132	99.32111	720.55914	-1244.32959	190.31284	1394.03308	-855.19092	161.30183	1195.71643	-763.09448	178.89569	1074.73096	-749.34296	209.42018	958.24023	-733.93384	284.29846	829.09985	-770.25531	233.98196	822.89966	-726.88367	281.87112	753.59082	-727.92999	277.50778	948.32996	-1095.41565	248.43268	950.72211	-878.07837	116.4583	976.15161	-1091.95129	101.03516	979.94116	-923.61682	249.7811	637.19482	-1170.92224	276.6449	479.87399	-1142.36035	309.81769	226.55684	-1139.08813	359.12061	61.60592	-1098.40002	327.34283	45.02583	-1047.82166	505.58191	47.538	-1105.14636	137.68039	621.57892	-835.58923	116.51749	496.09732	-853.3642	-38.27423	272.97424	-866.15961	-128.99689	110.16811	-914.93787	-172.05397	101.27352	-962.48761	1.15125	30.39825	-910.21149	165.82648	1686.29895	-1018.49438	NaN	NaN	NaN	NaN	NaN	NaN	NaN	NaN	NaN	NaN	NaN	NaN	NaN	NaN	NaN	NaN	NaN	NaN	NaN	NaN	NaN	NaN	NaN	NaN	NaN	NaN	NaN	NaN	NaN	NaN	NaN	NaN	NaN
210	2.09	277.43634	1647.20154	-1071.75183	267.68146	1636.48438	-940.42798	144.84451	1595.02954	-1082.77893	136.59946	1588.48352	-953.8551	136.35973	1437.4989	-1021.8678	93.46364	1108.90454	-1009.89221	244.45174	1358.9635	-1016.03973	280.72971	1182.8606	-1013.65582	55.89141	1271.61536	-937.91919	192.24408	1384.82495	-1180.79541	151.84412	1185.49097	-1244.04749	120.84721	1076.69995	-1247.9895	113.39084	925.02289	-1261.86646	146.4366	803.16113	-1211.76855	87.92028	808.60742	-1252.20203	110.96706	720.7226	-1246.40942	197.33818	1394.62415	-856.8656	167.80151	1196.13196	-765.21222	185.42763	1075.19299	-751.31067	215.21068	958.55719	-735.43048	289.43912	828.84412	-770.7005	238.7688	823.13739	-727.61981	286.17221	753.52594	-728.11664	286.42712	949.31873	-1096.47058	256.9201	951.36304	-879.32928	125.18159	977.23987	-1093.49023	109.34226	980.13275	-925.22021	256.71909	638.04712	-1172.67114	282.56833	480.19336	-1144.59802	313.47479	226.53816	-1140.53674	360.73462	61.14747	-1098.81543	328.47894	45.53976	-1048.33423	506.9321	44.45557	-1104.99048	147.40944	621.67188	-836.16699	126.85562	496.04791	-853.50641	-31.79467	275.6636	-866.34454	-125.68524	114.74891	-914.97729	-168.68912	107.11885	-962.61792	1.47714	30.53086	-910.40698	173.59772	1686.95349	-1020.40704	NaN	NaN	NaN	NaN	NaN	NaN	NaN	NaN	NaN	NaN	NaN	NaN	NaN	NaN	NaN	NaN	NaN	NaN	NaN	NaN	NaN	NaN	NaN	NaN	NaN	NaN	NaN	NaN	NaN	NaN	NaN	NaN	NaN
211	2.1	285.38153	1648.047	-1073.41858	275.16928	1637.39478	-941.98395	152.82175	1595.82751	-1084.74622	144.12517	1589.20251	-955.8797	144.18625	1438.17969	-1023.98083	101.72721	1109.69556	-1011.97632	252.56517	1359.86816	-1017.52814	289.14334	1183.84656	-1015.10651	63.79489	1272.08606	-940.64716	201.55595	1385.62939	-1182.60461	162.6214	1185.99756	-1246.22327	132.17691	1077.08777	-1250.67834	125.45634	925.40497	-1264.38733	157.90248	803.64941	-1213.61145	99.97001	808.85815	-1254.94495	123.06972	721.03699	-1248.66833	204.35631	1395.47058	-858.6051	174.25986	1196.86182	-767.38568	191.94734	1075.91418	-753.40845	220.94986	959.14569	-736.99701	294.71997	828.97382	-771.13464	243.21765	823.39117	-728.8446	290.28769	753.64301	-728.38135	294.9538	950.48676	-1097.93774	265.23618	952.16638	-881.06458	133.6593	978.43921	-1094.91638	117.53609	980.56647	-926.72137	263.57916	638.87354	-1174.30811	288.85461	480.77115	-1146.5791	317.61703	226.7679	-1141.76746	362.47894	61.04321	-1098.97656	329.5799	46.0945	-1048.58765	508.42722	42.94885	-1104.66296	157.59055	621.8988	-836.70197	137.87692	496.17844	-853.51276	-24.69816	278.64111	-866.38055	-121.89032	119.81542	-914.95032	-164.78363	113.59161	-962.62158	1.95803	30.7501	-910.64691	181.3979	1687.72803	-1022.35443	NaN	NaN	NaN	NaN	NaN	NaN	NaN	NaN	NaN	NaN	NaN	NaN	NaN	NaN	NaN	NaN	NaN	NaN	NaN	NaN	NaN	NaN	NaN	NaN	NaN	NaN	NaN	NaN	NaN	NaN	NaN	NaN	NaN
212	2.11	293.3573	1649.0343	-1075.02783	282.74216	1638.5481	-943.6145	160.83517	1596.75586	-1086.69873	151.71104	1590.29749	-957.81348	152.12267	1439.00586	-1026.13806	110.08605	1110.56348	-1013.98328	260.61603	1360.94763	-1019.04095	297.39798	1184.99402	-1016.53918	71.57413	1272.8092	-943.20892	210.73749	1386.62097	-1184.34595	173.47383	1186.65369	-1248.36267	143.77777	1077.53223	-1253.0033	137.62436	925.86377	-1266.72986	169.80745	804.3335	-1215.46057	112.50792	809.39154	-1257.97278	135.65894	721.56573	-1251.10974	211.38719	1396.53784	-860.32935	180.8735	1197.80139	-769.6012	198.42354	1076.90417	-755.48865	226.52451	959.94781	-738.57288	299.47903	828.95551	-771.53949	247.47186	824.16907	-729.64545	294.14838	753.95361	-728.65594	303.19159	951.8125	-1099.83704	273.82983	953.11194	-882.84351	141.90448	979.7298	-1096.33569	125.97251	981.14667	-928.25421	270.5397	640.08026	-1176.06738	295.23663	481.5545	-1148.20972	321.93259	227.11642	-1142.84277	363.79053	61.10545	-1099.02307	330.4274	46.54377	-1048.85388	509.59833	41.6973	-1104.06824	168.06453	622.25708	-837.23566	149.39401	496.30743	-853.39569	-16.87202	281.81113	-866.43408	-117.47491	125.19633	-914.83093	-160.01683	120.4081	-962.77557	2.59131	30.96205	-910.86285	189.15063	1688.82141	-1024.32349	NaN	NaN	NaN	NaN	NaN	NaN	NaN	NaN	NaN	NaN	NaN	NaN	NaN	NaN	NaN	NaN	NaN	NaN	NaN	NaN	NaN	NaN	NaN	NaN	NaN	NaN	NaN	NaN	NaN	NaN	NaN	NaN	NaN
213	2.12	301.28363	1650.33777	-1076.52979	290.34561	1639.93201	-945.26263	168.81154	1597.94312	-1088.63391	159.42531	1591.68787	-959.7774	159.96893	1440.1543	-1028.24146	118.24635	1111.72388	-1015.99872	268.53448	1362.23584	-1020.53516	305.52786	1186.29468	-1018.08875	79.39842	1273.70496	-945.66852	219.86797	1387.91699	-1186.12085	184.4054	1187.53027	-1250.46948	155.41632	1078.31311	-1255.54651	150.33183	926.71637	-1269.56689	181.99953	805.19647	-1217.51208	125.4718	810.00903	-1261.11523	148.75404	722.22272	-1253.67627	218.45784	1397.81836	-862.0874	187.22223	1198.99109	-771.87054	204.81485	1078.05835	-757.63177	232.04736	960.95471	-740.24915	304.25711	829.25653	-772.05737	251.91275	824.86359	-730.90076	297.84177	754.41595	-729.00708	311.35553	953.33789	-1102.04932	282.43958	954.22748	-884.79279	149.86414	981.07526	-1097.68823	134.91589	981.77496	-929.82611	277.84357	641.401	-1177.96057	301.37177	482.5296	-1149.95239	326.05698	227.69014	-1143.89417	364.66388	61.10749	-1099.01379	330.84027	46.79543	-1049.07239	510.35306	40.74121	-1103.32532	178.72311	622.69214	-837.78552	161.38538	496.45056	-853.19312	-8.34585	285.07953	-866.36591	-112.299	130.83356	-914.78931	-154.33847	127.47719	-962.95959	3.44942	31.32058	-911.07819	196.94838	1690.00903	-1026.26965	NaN	NaN	NaN	NaN	NaN	NaN	NaN	NaN	NaN	NaN	NaN	NaN	NaN	NaN	NaN	NaN	NaN	NaN	NaN	NaN	NaN	NaN	NaN	NaN	NaN	NaN	NaN	NaN	NaN	NaN	NaN	NaN	NaN
214	2.13	309.15771	1651.53125	-1078.13184	297.82013	1641.22278	-946.83722	176.7278	1599.25366	-1090.53662	166.87923	1592.93298	-961.72278	167.88301	1441.4187	-1030.30164	126.36121	1113.02832	-1018.02582	276.42154	1363.60364	-1022.06744	313.60077	1187.72034	-1019.63721	87.15112	1274.85278	-947.90894	228.8306	1389.33569	-1187.77917	195.24995	1188.57166	-1252.58276	167.08955	1079.27905	-1258.21484	163.01401	927.51569	-1272.01758	194.39343	806.19916	-1219.64661	138.97119	810.82581	-1264.35486	162.36563	723.10309	-1256.42297	225.61455	1399.17969	-863.85693	194.07532	1200.28394	-773.86151	211.16119	1079.40662	-759.7171	237.44278	962.10712	-741.80811	309.10641	829.81866	-772.6134	256.07782	825.82129	-732.04102	301.32736	754.96704	-729.48273	319.32297	954.90149	-1104.51978	290.75345	955.44489	-887.07941	157.84024	982.33099	-1098.99695	143.28732	982.72577	-931.32245	284.01819	642.53186	-1178.62573	307.20114	483.36951	-1151.396	329.47839	228.30157	-1144.65137	365.35294	61.1904	-1098.91504	331.18243	47.04048	-1049.13269	510.98944	40.10143	-1102.69678	189.66475	623.20239	-838.26862	173.91954	496.66342	-852.76605	0.99433	288.40091	-866.26324	-106.25893	136.77188	-914.85565	-147.74733	134.95369	-963.3974	4.6938	31.74401	-911.23157	204.76819	1691.35864	-1028.1571	NaN	NaN	NaN	NaN	NaN	NaN	NaN	NaN	NaN	NaN	NaN	NaN	NaN	NaN	NaN	NaN	NaN	NaN	NaN	NaN	NaN	NaN	NaN	NaN	NaN	NaN	NaN	NaN	NaN	NaN	NaN	NaN	NaN
215	2.14	317.07452	1652.72461	-1079.66089	305.33875	1642.46814	-948.41217	184.61926	1600.6001	-1092.4386	174.34251	1594.30139	-963.65002	175.66515	1442.66272	-1032.28186	134.24779	1114.40967	-1020.04987	284.16504	1364.98669	-1023.61188	321.55228	1189.12976	-1021.26117	94.89191	1276.12097	-950.02802	237.58492	1390.81128	-1189.41931	206.1167	1189.84021	-1254.73706	178.76361	1080.3175	-1260.72217	176.09309	928.59253	-1274.76282	207.23164	807.38904	-1221.82568	152.84102	811.75696	-1267.68079	176.40839	724.0578	-1259.20605	232.90402	1400.58679	-865.70367	200.59952	1201.71912	-776.11517	217.43547	1080.80652	-761.69659	242.79437	963.3418	-743.42804	313.66141	830.3299	-773.27252	259.97885	826.96704	-732.97803	304.88513	755.61438	-730.13879	327.12704	956.44403	-1107.05933	298.98441	956.76593	-889.53589	165.72745	983.58081	-1100.36731	151.4953	983.77911	-932.89148	290.71713	643.62299	-1179.84424	312.40445	483.9859	-1152.61804	332.06424	228.67403	-1145.22144	365.98169	61.29728	-1098.85742	331.52698	47.26246	-1049.20081	511.56509	39.59072	-1102.36987	200.62553	623.76074	-838.79315	186.8698	496.9122	-852.19373	11.18196	291.62988	-866.16632	-99.32777	142.86778	-914.98151	-140.14613	142.60646	-963.99072	6.35567	32.35041	-911.26526	212.48715	1692.77466	-1030.03589	NaN	NaN	NaN	NaN	NaN	NaN	NaN	NaN	NaN	NaN	NaN	NaN	NaN	NaN	NaN	NaN	NaN	NaN	NaN	NaN	NaN	NaN	NaN	NaN	NaN	NaN	NaN	NaN	NaN	NaN	NaN	NaN	NaN
